INFO: Created TensorFlow Lite XNNPACK delegate for CPU.
W0000 00:00:1778430233.568585   22252 inference_feedback_manager.cc:121] Feedback manager requires a model with a single signature inference. Disabling support for feedback tensors.
ffmpeg version 8.1.1-full_build-www.gyan.dev Copyright (c) 2000-2026 the FFmpeg developers
  built with gcc 15.2.0 (Rev13, Built by MSYS2 project)
  configuration: --enable-gpl --enable-version3 --enable-static --disable-w32threads --disable-autodetect --enable-cairo --enable-fontconfig --enable-iconv --enable-gnutls --enable-lcms2 --enable-libxml2 --enable-gmp --enable-bzlib --enable-lzma --enable-libsnappy --enable-zlib --enable-librist --enable-libsrt --enable-libssh --enable-libzmq --enable-avisynth --enable-libbluray --enable-libcaca --enable-libdvdnav --enable-libdvdread --enable-sdl2 --enable-libaribb24 --enable-libaribcaption --enable-libdav1d --enable-libdavs2 --enable-libopenjpeg --enable-libquirc --enable-libuavs3d --enable-libxevd --enable-libzvbi --enable-liboapv --enable-libqrencode --enable-librav1e --enable-libsvtav1 --enable-libvvenc --enable-libwebp --enable-libx264 --enable-libx265 --enable-libxavs2 --enable-libxeve --enable-libxvid --enable-libaom --enable-libjxl --enable-libsvtjpegxs --enable-libvpx --enable-mediafoundation --enable-libass --enable-frei0r --enable-libfreetype --enable-libfribidi --enable-libharfbuzz --enable-liblensfun --enable-libvidstab --enable-libvmaf --enable-libzimg --enable-amf --enable-cuda-llvm --enable-cuvid --enable-dxva2 --enable-d3d11va --enable-d3d12va --enable-ffnvcodec --enable-libvpl --enable-nvdec --enable-nvenc --enable-vaapi --enable-libshaderc --enable-vulkan --enable-libplacebo --enable-opencl --enable-libcdio --enable-openal --enable-libgme --enable-libmodplug --enable-libopenmpt --enable-libopencore-amrwb --enable-libmp3lame --enable-libshine --enable-libtheora --enable-libtwolame --enable-libvo-amrwbenc --enable-libcodec2 --enable-libilbc --enable-libgsm --enable-liblc3 --enable-libopencore-amrnb --enable-libopus --enable-libspeex --enable-libvorbis --enable-ladspa --enable-libbs2b --enable-libflite --enable-libmysofa --enable-librubberband --enable-libsoxr --enable-chromaprint --enable-whisper
  libavutil      60. 26.101 / 60. 26.101
  libavcodec     62. 28.101 / 62. 28.101
  libavformat    62. 12.101 / 62. 12.101
  libavdevice    62.  3.101 / 62.  3.101
  libavfilter    11. 14.101 / 11. 14.101
  libswscale      9.  5.101 /  9.  5.101
  libswresample   6.  3.101 /  6.  3.101
Input #0, avi, from 'C:\Users\Macie\AppData\Local\Temp\face_track_pt1m60xs\segment_1_17-47_41_18-35_79_silent.avi':
  Metadata:
    software        : Lavf62.12.101
  Duration: 00:00:48.38, start: 0.000000, bitrate: 13402 kb/s
  Stream #0:0: Video: h264 (High) (H264 / 0x34363248), yuvj420p(pc, bt470bg/unknown/unknown, progressive), 1080x1920 [SAR 1:1 DAR 9:16], 13394 kb/s, 59.94 fps, 59.94 tbr, 59.94 tbn
Input #1, mov,mp4,m4a,3gp,3g2,mj2, from 'C:\Users\Macie\AppData\Local\Temp\face_track_pt1m60xs\segment_1_17-47_41_18-35_79_audio.m4a':
  Metadata:
    major_brand     : M4A 
    minor_version   : 512
    compatible_brands: M4A isomiso2
    encoder         : Lavf62.12.101
  Duration: 00:00:48.38, start: 0.000000, bitrate: 202 kb/s
  Stream #1:0[0x1](eng): Audio: aac (LC) (mp4a / 0x6134706D), 48000 Hz, stereo, fltp, 201 kb/s (default)
    Metadata:
      handler_name    : SoundHandler
Stream mapping:
  Stream #0:0 -> #0:0 (h264 (native) -> h264 (libx264))
  Stream #1:0 -> #0:1 (aac (native) -> aac (native))
Press [q] to stop, [?] for help
[swscaler @ 000002cb73bb1600] deprecated pixel format used, make sure you did set range correctly
[libx264 @ 000002cb720206c0] using SAR=1/1
[libx264 @ 000002cb720206c0] using cpu capabilities: MMX2 SSE2Fast SSSE3 SSE4.2 AVX FMA3 BMI2 AVX2 AVX512
[libx264 @ 000002cb720206c0] profile High, level 4.2, 4:2:0, 8-bit
[libx264 @ 000002cb720206c0] 264 - core 165 r3223 0480cb0 - H.264/MPEG-4 AVC codec - Copyleft 2003-2025 - http://www.videolan.org/x264.html - options: cabac=1 ref=1 deblock=1:0:0 analyse=0x3:0x3 me=dia subme=1 psy=1 psy_rd=1.00:0.00 mixed_ref=0 me_range=16 chroma_me=1 trellis=0 8x8dct=1 cqm=0 deadzone=21,11 fast_pskip=1 chroma_qp_offset=0 threads=24 lookahead_threads=4 sliced_threads=0 nr=0 decimate=1 interlaced=0 bluray_compat=0 constrained_intra=0 bframes=3 b_pyramid=2 b_adapt=1 b_bias=0 direct=1 weightb=1 open_gop=0 weightp=1 keyint=250 keyint_min=25 scenecut=40 intra_refresh=0 rc=crf mbtree=0 crf=23.0 qcomp=0.60 qpmin=0 qpmax=69 qpstep=4 ip_ratio=1.40 pb_ratio=1.30 aq=1:1.00
Output #0, mp4, to 'D:\PythonProjects\viral-cutter-ai\benchmarks\runs\20260510_160345\emeritos_gameplay\compare_generic\cuts_raw\segment_1_17-47_41_18-35_79.mp4':
  Metadata:
    software        : Lavf62.12.101
    encoder         : Lavf62.12.101
  Stream #0:0: Video: h264 (avc1 / 0x31637661), yuv420p(pc, bt470bg/unknown/unknown, progressive), 1080x1920 [SAR 1:1 DAR 9:16], q=2-31, 59.94 fps, 60k tbn
    Metadata:
      encoder         : Lavc62.28.101 libx264
    Side data:
      CPB properties: bitrate max/min/avg: 0/0/0 buffer size: 0 vbv_delay: N/A
  Stream #0:1(eng): Audio: aac (LC) (mp4a / 0x6134706D), 48000 Hz, stereo, fltp, 192 kb/s (default)
    Metadata:
      encoder         : Lavc62.28.101 aac
      handler_name    : SoundHandler
frame=  232 fps=0.0 q=27.0 size=    3840KiB time=00:00:03.87 bitrate=8127.5kbits/s speed= 7.5x elapsed=0:00:00.51    frame=  556 fps=535 q=27.0 size=    7936KiB time=00:00:09.27 bitrate=7008.7kbits/s speed=8.92x elapsed=0:00:01.04    frame=  680 fps=435 q=27.0 size=    9472KiB time=00:00:11.34 bitrate=6839.8kbits/s speed=7.26x elapsed=0:00:01.56    frame=  928 fps=448 q=28.0 size=   13824KiB time=00:00:15.48 bitrate=7314.7kbits/s speed=7.48x elapsed=0:00:02.07    frame= 1248 fps=484 q=27.0 size=   17664KiB time=00:00:20.82 bitrate=6950.0kbits/s speed=8.07x elapsed=0:00:02.57    frame= 1560 fps=504 q=27.0 size=   21248KiB time=00:00:26.02 bitrate=6688.1kbits/s speed= 8.4x elapsed=0:00:03.09    frame= 1855 fps=513 q=28.0 size=   25600KiB time=00:00:30.94 bitrate=6776.5kbits/s speed=8.56x elapsed=0:00:03.61    frame= 2168 fps=525 q=28.0 size=   29440KiB time=00:00:36.16 bitrate=6667.9kbits/s speed=8.76x elapsed=0:00:04.12    frame= 2534 fps=544 q=28.0 size=   35072KiB time=00:00:42.83 bitrate=6707.0kbits/s speed= 9.2x elapsed=0:00:04.65    frame= 2864 fps=555 q=25.0 size=   40704KiB time=N/A bitrate=N/A speed=N/A elapsed=0:00:05.15    [mp4 @ 000002cb71bf09c0] Starting second pass: moving the moov atom to the beginning of the file
[out#0/mp4 @ 000002cb6fd8aec0] video:40233KiB audio:1183KiB subtitle:0KiB other streams:0KiB global headers:0KiB muxing overhead: 0.182465%
frame= 2898 fps=558 q=-1.0 Lsize=   41491KiB time=00:00:48.34 bitrate=7030.2kbits/s speed=9.31x elapsed=0:00:05.19    
[libx264 @ 000002cb720206c0] frame I:15    Avg QP:19.25  size: 69450
[libx264 @ 000002cb720206c0] frame P:994   Avg QP:21.09  size: 25098
[libx264 @ 000002cb720206c0] frame B:1889  Avg QP:22.87  size:  8051
[libx264 @ 000002cb720206c0] consecutive B-frames:  6.1% 19.3%  4.6% 70.0%
[libx264 @ 000002cb720206c0] mb I  I16..4: 13.9% 62.1% 24.0%
[libx264 @ 000002cb720206c0] mb P  I16..4:  9.0% 27.5%  2.6%  P16..4: 31.7%  0.0%  0.0%  0.0%  0.0%    skip:29.2%
[libx264 @ 000002cb720206c0] mb B  I16..4:  1.8%  3.7%  0.2%  B16..8: 23.5%  0.0%  0.0%  direct: 5.5%  skip:65.4%  L0:43.6% L1:49.4% BI: 7.0%
[libx264 @ 000002cb720206c0] 8x8 transform intra:68.9% inter:49.9%
[libx264 @ 000002cb720206c0] coded y,uvDC,uvAC intra: 36.1% 30.5% 6.2% inter: 3.9% 8.8% 0.0%
[libx264 @ 000002cb720206c0] i16 v,h,dc,p: 37% 36% 10% 16%
[libx264 @ 000002cb720206c0] i8 v,h,dc,ddl,ddr,vr,hd,vl,hu: 15% 29% 16%  6%  6%  5% 10%  4%  9%
[libx264 @ 000002cb720206c0] i4 v,h,dc,ddl,ddr,vr,hd,vl,hu: 20% 34% 11%  6%  6%  5%  7%  4%  8%
[libx264 @ 000002cb720206c0] i8c dc,h,v,p: 52% 24% 16%  8%
[libx264 @ 000002cb720206c0] Weighted P-Frames: Y:0.6% UV:0.3%
[libx264 @ 000002cb720206c0] kb/s:6816.90
[aac @ 000002cb72095500] Qavg: 612.975
W0000 00:00:1778430299.189726   17176 inference_feedback_manager.cc:121] Feedback manager requires a model with a single signature inference. Disabling support for feedback tensors.
ffmpeg version 8.1.1-full_build-www.gyan.dev Copyright (c) 2000-2026 the FFmpeg developers
  built with gcc 15.2.0 (Rev13, Built by MSYS2 project)
  configuration: --enable-gpl --enable-version3 --enable-static --disable-w32threads --disable-autodetect --enable-cairo --enable-fontconfig --enable-iconv --enable-gnutls --enable-lcms2 --enable-libxml2 --enable-gmp --enable-bzlib --enable-lzma --enable-libsnappy --enable-zlib --enable-librist --enable-libsrt --enable-libssh --enable-libzmq --enable-avisynth --enable-libbluray --enable-libcaca --enable-libdvdnav --enable-libdvdread --enable-sdl2 --enable-libaribb24 --enable-libaribcaption --enable-libdav1d --enable-libdavs2 --enable-libopenjpeg --enable-libquirc --enable-libuavs3d --enable-libxevd --enable-libzvbi --enable-liboapv --enable-libqrencode --enable-librav1e --enable-libsvtav1 --enable-libvvenc --enable-libwebp --enable-libx264 --enable-libx265 --enable-libxavs2 --enable-libxeve --enable-libxvid --enable-libaom --enable-libjxl --enable-libsvtjpegxs --enable-libvpx --enable-mediafoundation --enable-libass --enable-frei0r --enable-libfreetype --enable-libfribidi --enable-libharfbuzz --enable-liblensfun --enable-libvidstab --enable-libvmaf --enable-libzimg --enable-amf --enable-cuda-llvm --enable-cuvid --enable-dxva2 --enable-d3d11va --enable-d3d12va --enable-ffnvcodec --enable-libvpl --enable-nvdec --enable-nvenc --enable-vaapi --enable-libshaderc --enable-vulkan --enable-libplacebo --enable-opencl --enable-libcdio --enable-openal --enable-libgme --enable-libmodplug --enable-libopenmpt --enable-libopencore-amrwb --enable-libmp3lame --enable-libshine --enable-libtheora --enable-libtwolame --enable-libvo-amrwbenc --enable-libcodec2 --enable-libilbc --enable-libgsm --enable-liblc3 --enable-libopencore-amrnb --enable-libopus --enable-libspeex --enable-libvorbis --enable-ladspa --enable-libbs2b --enable-libflite --enable-libmysofa --enable-librubberband --enable-libsoxr --enable-chromaprint --enable-whisper
  libavutil      60. 26.101 / 60. 26.101
  libavcodec     62. 28.101 / 62. 28.101
  libavformat    62. 12.101 / 62. 12.101
  libavdevice    62.  3.101 / 62.  3.101
  libavfilter    11. 14.101 / 11. 14.101
  libswscale      9.  5.101 /  9.  5.101
  libswresample   6.  3.101 /  6.  3.101
Input #0, avi, from 'C:\Users\Macie\AppData\Local\Temp\face_track_7lvr5wcw\segment_2_16-38_20_17-19_73_silent.avi':
  Metadata:
    software        : Lavf62.12.101
  Duration: 00:00:41.52, start: 0.000000, bitrate: 9078 kb/s
  Stream #0:0: Video: h264 (High) (H264 / 0x34363248), yuvj420p(pc, bt470bg/unknown/unknown, progressive), 1080x1920 [SAR 1:1 DAR 9:16], 9069 kb/s, 59.94 fps, 59.94 tbr, 59.94 tbn
Input #1, mov,mp4,m4a,3gp,3g2,mj2, from 'C:\Users\Macie\AppData\Local\Temp\face_track_7lvr5wcw\segment_2_16-38_20_17-19_73_audio.m4a':
  Metadata:
    major_brand     : M4A 
    minor_version   : 512
    compatible_brands: M4A isomiso2
    encoder         : Lavf62.12.101
  Duration: 00:00:41.53, start: 0.000000, bitrate: 197 kb/s
  Stream #1:0[0x1](eng): Audio: aac (LC) (mp4a / 0x6134706D), 48000 Hz, stereo, fltp, 195 kb/s (default)
    Metadata:
      handler_name    : SoundHandler
Stream mapping:
  Stream #0:0 -> #0:0 (h264 (native) -> h264 (libx264))
  Stream #1:0 -> #0:1 (aac (native) -> aac (native))
Press [q] to stop, [?] for help
[swscaler @ 0000018337974340] deprecated pixel format used, make sure you did set range correctly
[libx264 @ 00000183360c7a40] using SAR=1/1
[libx264 @ 00000183360c7a40] using cpu capabilities: MMX2 SSE2Fast SSSE3 SSE4.2 AVX FMA3 BMI2 AVX2 AVX512
[libx264 @ 00000183360c7a40] profile High, level 4.2, 4:2:0, 8-bit
[libx264 @ 00000183360c7a40] 264 - core 165 r3223 0480cb0 - H.264/MPEG-4 AVC codec - Copyleft 2003-2025 - http://www.videolan.org/x264.html - options: cabac=1 ref=1 deblock=1:0:0 analyse=0x3:0x3 me=dia subme=1 psy=1 psy_rd=1.00:0.00 mixed_ref=0 me_range=16 chroma_me=1 trellis=0 8x8dct=1 cqm=0 deadzone=21,11 fast_pskip=1 chroma_qp_offset=0 threads=24 lookahead_threads=4 sliced_threads=0 nr=0 decimate=1 interlaced=0 bluray_compat=0 constrained_intra=0 bframes=3 b_pyramid=2 b_adapt=1 b_bias=0 direct=1 weightb=1 open_gop=0 weightp=1 keyint=250 keyint_min=25 scenecut=40 intra_refresh=0 rc=crf mbtree=0 crf=23.0 qcomp=0.60 qpmin=0 qpmax=69 qpstep=4 ip_ratio=1.40 pb_ratio=1.30 aq=1:1.00
Output #0, mp4, to 'D:\PythonProjects\viral-cutter-ai\benchmarks\runs\20260510_160345\emeritos_gameplay\compare_generic\cuts_raw\segment_2_16-38_20_17-19_73.mp4':
  Metadata:
    software        : Lavf62.12.101
    encoder         : Lavf62.12.101
  Stream #0:0: Video: h264 (avc1 / 0x31637661), yuv420p(pc, bt470bg/unknown/unknown, progressive), 1080x1920 [SAR 1:1 DAR 9:16], q=2-31, 59.94 fps, 60k tbn
    Metadata:
      encoder         : Lavc62.28.101 libx264
    Side data:
      CPB properties: bitrate max/min/avg: 0/0/0 buffer size: 0 vbv_delay: N/A
  Stream #0:1(eng): Audio: aac (LC) (mp4a / 0x6134706D), 48000 Hz, stereo, fltp, 192 kb/s (default)
    Metadata:
      encoder         : Lavc62.28.101 aac
      handler_name    : SoundHandler
frame=  360 fps=0.0 q=22.0 size=    2304KiB time=00:00:06.00 bitrate=3142.6kbits/s speed=11.8x elapsed=0:00:00.50    frame=  573 fps=563 q=21.0 size=    3328KiB time=00:00:09.55 bitrate=2852.0kbits/s speed=9.39x elapsed=0:00:01.01    frame=  944 fps=612 q=26.0 size=    6912KiB time=00:00:15.74 bitrate=3595.4kbits/s speed=10.2x elapsed=0:00:01.54    frame= 1244 fps=605 q=24.0 size=   11264KiB time=00:00:20.75 bitrate=4446.1kbits/s speed=10.1x elapsed=0:00:02.05    frame= 1514 fps=587 q=27.0 size=   14336KiB time=00:00:25.25 bitrate=4649.5kbits/s speed= 9.8x elapsed=0:00:02.57    frame= 1791 fps=580 q=27.0 size=   19200KiB time=00:00:29.87 bitrate=5264.0kbits/s speed=9.67x elapsed=0:00:03.09    frame= 2210 fps=614 q=20.0 size=   23808KiB time=00:00:37.41 bitrate=5212.3kbits/s speed=10.4x elapsed=0:00:03.59    [mp4 @ 0000018333c1cf40] Starting second pass: moving the moov atom to the beginning of the file
[out#0/mp4 @ 0000018333c1b280] video:24270KiB audio:992KiB subtitle:0KiB other streams:0KiB global headers:0KiB muxing overhead: 0.254943%
frame= 2487 fps=649 q=-1.0 Lsize=   25327KiB time=00:00:41.49 bitrate=5000.5kbits/s speed=10.8x elapsed=0:00:03.83    
[libx264 @ 00000183360c7a40] frame I:13    Avg QP:15.81  size: 93748
[libx264 @ 00000183360c7a40] frame P:885   Avg QP:17.13  size: 17682
[libx264 @ 00000183360c7a40] frame B:1589  Avg QP:18.91  size:  5025
[libx264 @ 00000183360c7a40] consecutive B-frames:  9.7% 13.3%  6.4% 70.6%
[libx264 @ 00000183360c7a40] mb I  I16..4: 26.6% 45.1% 28.4%
[libx264 @ 00000183360c7a40] mb P  I16..4: 15.9% 18.2%  2.1%  P16..4: 18.5%  0.0%  0.0%  0.0%  0.0%    skip:45.2%
[libx264 @ 00000183360c7a40] mb B  I16..4:  2.1%  3.0%  0.2%  B16..8: 10.8%  0.0%  0.0%  direct: 4.8%  skip:79.2%  L0:43.1% L1:49.7% BI: 7.2%
[libx264 @ 00000183360c7a40] 8x8 transform intra:51.4% inter:50.1%
[libx264 @ 00000183360c7a40] coded y,uvDC,uvAC intra: 26.5% 28.5% 8.5% inter: 2.4% 7.7% 0.1%
[libx264 @ 00000183360c7a40] i16 v,h,dc,p: 57% 30%  4%  9%
[libx264 @ 00000183360c7a40] i8 v,h,dc,ddl,ddr,vr,hd,vl,hu: 16% 27% 17%  6%  6%  6%  9%  4%  9%
[libx264 @ 00000183360c7a40] i4 v,h,dc,ddl,ddr,vr,hd,vl,hu: 23% 31% 11%  7%  6%  5%  6%  4%  7%
[libx264 @ 00000183360c7a40] i8c dc,h,v,p: 58% 21% 14%  7%
[libx264 @ 00000183360c7a40] Weighted P-Frames: Y:12.3% UV:1.9%
[libx264 @ 00000183360c7a40] kb/s:4791.77
[aac @ 0000018335c74c00] Qavg: 609.241
W0000 00:00:1778430345.999443   23984 inference_feedback_manager.cc:121] Feedback manager requires a model with a single signature inference. Disabling support for feedback tensors.
ffmpeg version 8.1.1-full_build-www.gyan.dev Copyright (c) 2000-2026 the FFmpeg developers
  built with gcc 15.2.0 (Rev13, Built by MSYS2 project)
  configuration: --enable-gpl --enable-version3 --enable-static --disable-w32threads --disable-autodetect --enable-cairo --enable-fontconfig --enable-iconv --enable-gnutls --enable-lcms2 --enable-libxml2 --enable-gmp --enable-bzlib --enable-lzma --enable-libsnappy --enable-zlib --enable-librist --enable-libsrt --enable-libssh --enable-libzmq --enable-avisynth --enable-libbluray --enable-libcaca --enable-libdvdnav --enable-libdvdread --enable-sdl2 --enable-libaribb24 --enable-libaribcaption --enable-libdav1d --enable-libdavs2 --enable-libopenjpeg --enable-libquirc --enable-libuavs3d --enable-libxevd --enable-libzvbi --enable-liboapv --enable-libqrencode --enable-librav1e --enable-libsvtav1 --enable-libvvenc --enable-libwebp --enable-libx264 --enable-libx265 --enable-libxavs2 --enable-libxeve --enable-libxvid --enable-libaom --enable-libjxl --enable-libsvtjpegxs --enable-libvpx --enable-mediafoundation --enable-libass --enable-frei0r --enable-libfreetype --enable-libfribidi --enable-libharfbuzz --enable-liblensfun --enable-libvidstab --enable-libvmaf --enable-libzimg --enable-amf --enable-cuda-llvm --enable-cuvid --enable-dxva2 --enable-d3d11va --enable-d3d12va --enable-ffnvcodec --enable-libvpl --enable-nvdec --enable-nvenc --enable-vaapi --enable-libshaderc --enable-vulkan --enable-libplacebo --enable-opencl --enable-libcdio --enable-openal --enable-libgme --enable-libmodplug --enable-libopenmpt --enable-libopencore-amrwb --enable-libmp3lame --enable-libshine --enable-libtheora --enable-libtwolame --enable-libvo-amrwbenc --enable-libcodec2 --enable-libilbc --enable-libgsm --enable-liblc3 --enable-libopencore-amrnb --enable-libopus --enable-libspeex --enable-libvorbis --enable-ladspa --enable-libbs2b --enable-libflite --enable-libmysofa --enable-librubberband --enable-libsoxr --enable-chromaprint --enable-whisper
  libavutil      60. 26.101 / 60. 26.101
  libavcodec     62. 28.101 / 62. 28.101
  libavformat    62. 12.101 / 62. 12.101
  libavdevice    62.  3.101 / 62.  3.101
  libavfilter    11. 14.101 / 11. 14.101
  libswscale      9.  5.101 /  9.  5.101
  libswresample   6.  3.101 /  6.  3.101
Input #0, avi, from 'C:\Users\Macie\AppData\Local\Temp\face_track_jxenoopj\segment_3_05-37_91_06-14_94_silent.avi':
  Metadata:
    software        : Lavf62.12.101
  Duration: 00:00:37.04, start: 0.000000, bitrate: 13745 kb/s
  Stream #0:0: Video: h264 (High) (H264 / 0x34363248), yuvj420p(pc, bt470bg/unknown/unknown, progressive), 1080x1920 [SAR 1:1 DAR 9:16], 13738 kb/s, 59.94 fps, 59.94 tbr, 59.94 tbn
Input #1, mov,mp4,m4a,3gp,3g2,mj2, from 'C:\Users\Macie\AppData\Local\Temp\face_track_jxenoopj\segment_3_05-37_91_06-14_94_audio.m4a':
  Metadata:
    major_brand     : M4A 
    minor_version   : 512
    compatible_brands: M4A isomiso2
    encoder         : Lavf62.12.101
  Duration: 00:00:37.03, start: 0.000000, bitrate: 199 kb/s
  Stream #1:0[0x1](eng): Audio: aac (LC) (mp4a / 0x6134706D), 48000 Hz, stereo, fltp, 197 kb/s (default)
    Metadata:
      handler_name    : SoundHandler
Stream mapping:
  Stream #0:0 -> #0:0 (h264 (native) -> h264 (libx264))
  Stream #1:0 -> #0:1 (aac (native) -> aac (native))
Press [q] to stop, [?] for help
[swscaler @ 000001bcc53bb940] deprecated pixel format used, make sure you did set range correctly
[libx264 @ 000001bcc3450780] using SAR=1/1
[libx264 @ 000001bcc3450780] using cpu capabilities: MMX2 SSE2Fast SSSE3 SSE4.2 AVX FMA3 BMI2 AVX2 AVX512
[libx264 @ 000001bcc3450780] profile High, level 4.2, 4:2:0, 8-bit
[libx264 @ 000001bcc3450780] 264 - core 165 r3223 0480cb0 - H.264/MPEG-4 AVC codec - Copyleft 2003-2025 - http://www.videolan.org/x264.html - options: cabac=1 ref=1 deblock=1:0:0 analyse=0x3:0x3 me=dia subme=1 psy=1 psy_rd=1.00:0.00 mixed_ref=0 me_range=16 chroma_me=1 trellis=0 8x8dct=1 cqm=0 deadzone=21,11 fast_pskip=1 chroma_qp_offset=0 threads=24 lookahead_threads=4 sliced_threads=0 nr=0 decimate=1 interlaced=0 bluray_compat=0 constrained_intra=0 bframes=3 b_pyramid=2 b_adapt=1 b_bias=0 direct=1 weightb=1 open_gop=0 weightp=1 keyint=250 keyint_min=25 scenecut=40 intra_refresh=0 rc=crf mbtree=0 crf=23.0 qcomp=0.60 qpmin=0 qpmax=69 qpstep=4 ip_ratio=1.40 pb_ratio=1.30 aq=1:1.00
Output #0, mp4, to 'D:\PythonProjects\viral-cutter-ai\benchmarks\runs\20260510_160345\emeritos_gameplay\compare_generic\cuts_raw\segment_3_05-37_91_06-14_94.mp4':
  Metadata:
    software        : Lavf62.12.101
    encoder         : Lavf62.12.101
  Stream #0:0: Video: h264 (avc1 / 0x31637661), yuv420p(pc, bt470bg/unknown/unknown, progressive), 1080x1920 [SAR 1:1 DAR 9:16], q=2-31, 59.94 fps, 60k tbn
    Metadata:
      encoder         : Lavc62.28.101 libx264
    Side data:
      CPB properties: bitrate max/min/avg: 0/0/0 buffer size: 0 vbv_delay: N/A
  Stream #0:1(eng): Audio: aac (LC) (mp4a / 0x6134706D), 48000 Hz, stereo, fltp, 192 kb/s (default)
    Metadata:
      encoder         : Lavc62.28.101 aac
      handler_name    : SoundHandler
frame=  266 fps=0.0 q=27.0 size=    3584KiB time=00:00:04.43 bitrate=6616.1kbits/s speed=8.64x elapsed=0:00:00.51    frame=  573 fps=557 q=28.0 size=    7936KiB time=00:00:09.55 bitrate=6800.7kbits/s speed=9.29x elapsed=0:00:01.02    frame=  707 fps=458 q=25.0 size=    9984KiB time=00:00:11.79 bitrate=6934.2kbits/s speed=7.65x elapsed=0:00:01.54    frame= 1027 fps=497 q=27.0 size=   14336KiB time=00:00:17.13 bitrate=6854.3kbits/s speed=8.29x elapsed=0:00:02.06    frame= 1316 fps=511 q=27.0 size=   17664KiB time=00:00:21.95 bitrate=6590.9kbits/s speed=8.53x elapsed=0:00:02.57    frame= 1595 fps=514 q=28.0 size=   22784KiB time=00:00:27.17 bitrate=6867.4kbits/s speed=8.76x elapsed=0:00:03.10    frame= 1950 fps=540 q=24.0 size=   28160KiB time=00:00:33.08 bitrate=6971.9kbits/s speed=9.16x elapsed=0:00:03.61    [mp4 @ 000001bcc364eb40] Starting second pass: moving the moov atom to the beginning of the file
[out#0/mp4 @ 000001bcc1576640] video:31888KiB audio:896KiB subtitle:0KiB other streams:0KiB global headers:0KiB muxing overhead: 0.175375%
frame= 2217 fps=550 q=-1.0 Lsize=   32842KiB time=00:00:36.98 bitrate=7273.9kbits/s speed=9.17x elapsed=0:00:04.03    
[libx264 @ 000001bcc3450780] frame I:14    Avg QP:19.85  size: 78883
[libx264 @ 000001bcc3450780] frame P:845   Avg QP:21.06  size: 25244
[libx264 @ 000001bcc3450780] frame B:1358  Avg QP:22.54  size:  7523
[libx264 @ 000001bcc3450780] consecutive B-frames: 10.6% 21.6%  4.9% 63.0%
[libx264 @ 000001bcc3450780] mb I  I16..4: 13.3% 54.5% 32.2%
[libx264 @ 000001bcc3450780] mb P  I16..4:  9.6% 28.5%  2.9%  P16..4: 32.1%  0.0%  0.0%  0.0%  0.0%    skip:26.9%
[libx264 @ 000001bcc3450780] mb B  I16..4:  2.1%  3.9%  0.2%  B16..8: 22.2%  0.0%  0.0%  direct: 4.8%  skip:66.8%  L0:42.6% L1:50.3% BI: 7.1%
[libx264 @ 000001bcc3450780] 8x8 transform intra:67.9% inter:54.1%
[libx264 @ 000001bcc3450780] coded y,uvDC,uvAC intra: 36.5% 26.7% 5.1% inter: 4.0% 8.0% 0.1%
[libx264 @ 000001bcc3450780] i16 v,h,dc,p: 38% 35% 10% 17%
[libx264 @ 000001bcc3450780] i8 v,h,dc,ddl,ddr,vr,hd,vl,hu: 15% 26% 16%  6%  7%  6%  9%  5% 10%
[libx264 @ 000001bcc3450780] i4 v,h,dc,ddl,ddr,vr,hd,vl,hu: 20% 31% 11%  7%  6%  5%  7%  4%  7%
[libx264 @ 000001bcc3450780] i8c dc,h,v,p: 55% 22% 16%  7%
[libx264 @ 000001bcc3450780] Weighted P-Frames: Y:0.5% UV:0.1%
[libx264 @ 000001bcc3450780] kb/s:7062.50
[aac @ 000001bcc3c2b080] Qavg: 699.791
W0000 00:00:1778430394.985309    5844 inference_feedback_manager.cc:121] Feedback manager requires a model with a single signature inference. Disabling support for feedback tensors.
ffmpeg version 8.1.1-full_build-www.gyan.dev Copyright (c) 2000-2026 the FFmpeg developers
  built with gcc 15.2.0 (Rev13, Built by MSYS2 project)
  configuration: --enable-gpl --enable-version3 --enable-static --disable-w32threads --disable-autodetect --enable-cairo --enable-fontconfig --enable-iconv --enable-gnutls --enable-lcms2 --enable-libxml2 --enable-gmp --enable-bzlib --enable-lzma --enable-libsnappy --enable-zlib --enable-librist --enable-libsrt --enable-libssh --enable-libzmq --enable-avisynth --enable-libbluray --enable-libcaca --enable-libdvdnav --enable-libdvdread --enable-sdl2 --enable-libaribb24 --enable-libaribcaption --enable-libdav1d --enable-libdavs2 --enable-libopenjpeg --enable-libquirc --enable-libuavs3d --enable-libxevd --enable-libzvbi --enable-liboapv --enable-libqrencode --enable-librav1e --enable-libsvtav1 --enable-libvvenc --enable-libwebp --enable-libx264 --enable-libx265 --enable-libxavs2 --enable-libxeve --enable-libxvid --enable-libaom --enable-libjxl --enable-libsvtjpegxs --enable-libvpx --enable-mediafoundation --enable-libass --enable-frei0r --enable-libfreetype --enable-libfribidi --enable-libharfbuzz --enable-liblensfun --enable-libvidstab --enable-libvmaf --enable-libzimg --enable-amf --enable-cuda-llvm --enable-cuvid --enable-dxva2 --enable-d3d11va --enable-d3d12va --enable-ffnvcodec --enable-libvpl --enable-nvdec --enable-nvenc --enable-vaapi --enable-libshaderc --enable-vulkan --enable-libplacebo --enable-opencl --enable-libcdio --enable-openal --enable-libgme --enable-libmodplug --enable-libopenmpt --enable-libopencore-amrwb --enable-libmp3lame --enable-libshine --enable-libtheora --enable-libtwolame --enable-libvo-amrwbenc --enable-libcodec2 --enable-libilbc --enable-libgsm --enable-liblc3 --enable-libopencore-amrnb --enable-libopus --enable-libspeex --enable-libvorbis --enable-ladspa --enable-libbs2b --enable-libflite --enable-libmysofa --enable-librubberband --enable-libsoxr --enable-chromaprint --enable-whisper
  libavutil      60. 26.101 / 60. 26.101
  libavcodec     62. 28.101 / 62. 28.101
  libavformat    62. 12.101 / 62. 12.101
  libavdevice    62.  3.101 / 62.  3.101
  libavfilter    11. 14.101 / 11. 14.101
  libswscale      9.  5.101 /  9.  5.101
  libswresample   6.  3.101 /  6.  3.101
Input #0, avi, from 'C:\Users\Macie\AppData\Local\Temp\face_track_q_q0ampx\segment_4_04-14_05_04-59_95_silent.avi':
  Metadata:
    software        : Lavf62.12.101
  Duration: 00:00:45.90, start: 0.000000, bitrate: 13298 kb/s
  Stream #0:0: Video: h264 (High) (H264 / 0x34363248), yuvj420p(pc, bt470bg/unknown/unknown, progressive), 1080x1920 [SAR 1:1 DAR 9:16], 13290 kb/s, 59.94 fps, 59.94 tbr, 59.94 tbn
Input #1, mov,mp4,m4a,3gp,3g2,mj2, from 'C:\Users\Macie\AppData\Local\Temp\face_track_q_q0ampx\segment_4_04-14_05_04-59_95_audio.m4a':
  Metadata:
    major_brand     : M4A 
    minor_version   : 512
    compatible_brands: M4A isomiso2
    encoder         : Lavf62.12.101
  Duration: 00:00:45.90, start: 0.000000, bitrate: 199 kb/s
  Stream #1:0[0x1](eng): Audio: aac (LC) (mp4a / 0x6134706D), 48000 Hz, stereo, fltp, 197 kb/s (default)
    Metadata:
      handler_name    : SoundHandler
Stream mapping:
  Stream #0:0 -> #0:0 (h264 (native) -> h264 (libx264))
  Stream #1:0 -> #0:1 (aac (native) -> aac (native))
Press [q] to stop, [?] for help
[swscaler @ 0000021c82abae00] deprecated pixel format used, make sure you did set range correctly
[libx264 @ 0000021cff8dce00] using SAR=1/1
[libx264 @ 0000021cff8dce00] using cpu capabilities: MMX2 SSE2Fast SSSE3 SSE4.2 AVX FMA3 BMI2 AVX2 AVX512
[libx264 @ 0000021cff8dce00] profile High, level 4.2, 4:2:0, 8-bit
[libx264 @ 0000021cff8dce00] 264 - core 165 r3223 0480cb0 - H.264/MPEG-4 AVC codec - Copyleft 2003-2025 - http://www.videolan.org/x264.html - options: cabac=1 ref=1 deblock=1:0:0 analyse=0x3:0x3 me=dia subme=1 psy=1 psy_rd=1.00:0.00 mixed_ref=0 me_range=16 chroma_me=1 trellis=0 8x8dct=1 cqm=0 deadzone=21,11 fast_pskip=1 chroma_qp_offset=0 threads=24 lookahead_threads=4 sliced_threads=0 nr=0 decimate=1 interlaced=0 bluray_compat=0 constrained_intra=0 bframes=3 b_pyramid=2 b_adapt=1 b_bias=0 direct=1 weightb=1 open_gop=0 weightp=1 keyint=250 keyint_min=25 scenecut=40 intra_refresh=0 rc=crf mbtree=0 crf=23.0 qcomp=0.60 qpmin=0 qpmax=69 qpstep=4 ip_ratio=1.40 pb_ratio=1.30 aq=1:1.00
Output #0, mp4, to 'D:\PythonProjects\viral-cutter-ai\benchmarks\runs\20260510_160345\emeritos_gameplay\compare_generic\cuts_raw\segment_4_04-14_05_04-59_95.mp4':
  Metadata:
    software        : Lavf62.12.101
    encoder         : Lavf62.12.101
  Stream #0:0: Video: h264 (avc1 / 0x31637661), yuv420p(pc, bt470bg/unknown/unknown, progressive), 1080x1920 [SAR 1:1 DAR 9:16], q=2-31, 59.94 fps, 60k tbn
    Metadata:
      encoder         : Lavc62.28.101 libx264
    Side data:
      CPB properties: bitrate max/min/avg: 0/0/0 buffer size: 0 vbv_delay: N/A
  Stream #0:1(eng): Audio: aac (LC) (mp4a / 0x6134706D), 48000 Hz, stereo, fltp, 192 kb/s (default)
    Metadata:
      encoder         : Lavc62.28.101 aac
      handler_name    : SoundHandler
frame=  317 fps=0.0 q=21.0 size=    2816KiB time=00:00:05.28 bitrate=4362.0kbits/s speed=10.2x elapsed=0:00:00.51    frame=  568 fps=550 q=27.0 size=    6912KiB time=00:00:09.47 bitrate=5975.4kbits/s speed=9.17x elapsed=0:00:01.03    frame=  681 fps=438 q=27.0 size=    8704KiB time=00:00:11.36 bitrate=6276.0kbits/s speed= 7.3x elapsed=0:00:01.55    frame=  932 fps=451 q=25.0 size=   13568KiB time=00:00:15.54 bitrate=7148.4kbits/s speed=7.53x elapsed=0:00:02.06    frame= 1224 fps=475 q=25.0 size=   17408KiB time=00:00:20.42 bitrate=6983.5kbits/s speed=7.92x elapsed=0:00:02.57    frame= 1539 fps=498 q=27.0 size=   20992KiB time=00:00:25.67 bitrate=6697.7kbits/s speed=8.31x elapsed=0:00:03.08    frame= 1827 fps=507 q=28.0 size=   25344KiB time=00:00:30.48 bitrate=6811.5kbits/s speed=8.46x elapsed=0:00:03.60    frame= 2144 fps=520 q=28.0 size=   29952KiB time=00:00:36.33 bitrate=6753.7kbits/s speed=8.81x elapsed=0:00:04.12    frame= 2456 fps=530 q=25.0 size=   35584KiB time=00:00:41.53 bitrate=7018.1kbits/s speed=8.96x elapsed=0:00:04.63    [mp4 @ 0000021cfec86080] Starting second pass: moving the moov atom to the beginning of the file
[out#0/mp4 @ 0000021cfec80b40] video:39053KiB audio:1104KiB subtitle:0KiB other streams:0KiB global headers:0KiB muxing overhead: 0.175735%
frame= 2749 fps=544 q=-1.0 Lsize=   40227KiB time=00:00:45.86 bitrate=7185.4kbits/s speed=9.08x elapsed=0:00:05.05    
[libx264 @ 0000021cff8dce00] frame I:21    Avg QP:17.08  size: 57550
[libx264 @ 0000021cff8dce00] frame P:1066  Avg QP:19.22  size: 24452
[libx264 @ 0000021cff8dce00] frame B:1662  Avg QP:20.72  size:  7651
[libx264 @ 0000021cff8dce00] consecutive B-frames: 12.1% 19.2%  8.2% 60.5%
[libx264 @ 0000021cff8dce00] mb I  I16..4: 25.2% 55.1% 19.8%
[libx264 @ 0000021cff8dce00] mb P  I16..4: 17.7% 33.3%  2.7%  P16..4: 22.4%  0.0%  0.0%  0.0%  0.0%    skip:23.8%
[libx264 @ 0000021cff8dce00] mb B  I16..4:  3.5%  5.4%  0.2%  B16..8: 19.5%  0.0%  0.0%  direct: 4.8%  skip:66.6%  L0:43.2% L1:50.0% BI: 6.8%
[libx264 @ 0000021cff8dce00] 8x8 transform intra:61.2% inter:54.0%
[libx264 @ 0000021cff8dce00] coded y,uvDC,uvAC intra: 28.5% 26.4% 6.2% inter: 3.2% 9.0% 0.1%
[libx264 @ 0000021cff8dce00] i16 v,h,dc,p: 51% 30%  7% 12%
[libx264 @ 0000021cff8dce00] i8 v,h,dc,ddl,ddr,vr,hd,vl,hu: 16% 26% 17%  6%  6%  6%  9%  4%  9%
[libx264 @ 0000021cff8dce00] i4 v,h,dc,ddl,ddr,vr,hd,vl,hu: 22% 32% 12%  7%  5%  5%  7%  4%  7%
[libx264 @ 0000021cff8dce00] i8c dc,h,v,p: 59% 20% 14%  7%
[libx264 @ 0000021cff8dce00] Weighted P-Frames: Y:13.8% UV:6.0%
[libx264 @ 0000021cff8dce00] kb/s:6975.58
[aac @ 0000021cffbbcac0] Qavg: 859.910
W0000 00:00:1778430452.642559   31548 inference_feedback_manager.cc:121] Feedback manager requires a model with a single signature inference. Disabling support for feedback tensors.
ffmpeg version 8.1.1-full_build-www.gyan.dev Copyright (c) 2000-2026 the FFmpeg developers
  built with gcc 15.2.0 (Rev13, Built by MSYS2 project)
  configuration: --enable-gpl --enable-version3 --enable-static --disable-w32threads --disable-autodetect --enable-cairo --enable-fontconfig --enable-iconv --enable-gnutls --enable-lcms2 --enable-libxml2 --enable-gmp --enable-bzlib --enable-lzma --enable-libsnappy --enable-zlib --enable-librist --enable-libsrt --enable-libssh --enable-libzmq --enable-avisynth --enable-libbluray --enable-libcaca --enable-libdvdnav --enable-libdvdread --enable-sdl2 --enable-libaribb24 --enable-libaribcaption --enable-libdav1d --enable-libdavs2 --enable-libopenjpeg --enable-libquirc --enable-libuavs3d --enable-libxevd --enable-libzvbi --enable-liboapv --enable-libqrencode --enable-librav1e --enable-libsvtav1 --enable-libvvenc --enable-libwebp --enable-libx264 --enable-libx265 --enable-libxavs2 --enable-libxeve --enable-libxvid --enable-libaom --enable-libjxl --enable-libsvtjpegxs --enable-libvpx --enable-mediafoundation --enable-libass --enable-frei0r --enable-libfreetype --enable-libfribidi --enable-libharfbuzz --enable-liblensfun --enable-libvidstab --enable-libvmaf --enable-libzimg --enable-amf --enable-cuda-llvm --enable-cuvid --enable-dxva2 --enable-d3d11va --enable-d3d12va --enable-ffnvcodec --enable-libvpl --enable-nvdec --enable-nvenc --enable-vaapi --enable-libshaderc --enable-vulkan --enable-libplacebo --enable-opencl --enable-libcdio --enable-openal --enable-libgme --enable-libmodplug --enable-libopenmpt --enable-libopencore-amrwb --enable-libmp3lame --enable-libshine --enable-libtheora --enable-libtwolame --enable-libvo-amrwbenc --enable-libcodec2 --enable-libilbc --enable-libgsm --enable-liblc3 --enable-libopencore-amrnb --enable-libopus --enable-libspeex --enable-libvorbis --enable-ladspa --enable-libbs2b --enable-libflite --enable-libmysofa --enable-librubberband --enable-libsoxr --enable-chromaprint --enable-whisper
  libavutil      60. 26.101 / 60. 26.101
  libavcodec     62. 28.101 / 62. 28.101
  libavformat    62. 12.101 / 62. 12.101
  libavdevice    62.  3.101 / 62.  3.101
  libavfilter    11. 14.101 / 11. 14.101
  libswscale      9.  5.101 /  9.  5.101
  libswresample   6.  3.101 /  6.  3.101
Input #0, avi, from 'C:\Users\Macie\AppData\Local\Temp\face_track_dzogwx63\segment_5_00-06_56_00-40_74_silent.avi':
  Metadata:
    software        : Lavf62.12.101
  Duration: 00:00:34.18, start: 0.000000, bitrate: 10361 kb/s
  Stream #0:0: Video: h264 (High) (H264 / 0x34363248), yuvj420p(pc, bt470bg/unknown/unknown, progressive), 1080x1920 [SAR 1:1 DAR 9:16], 10353 kb/s, 59.94 fps, 59.94 tbr, 59.94 tbn
Input #1, mov,mp4,m4a,3gp,3g2,mj2, from 'C:\Users\Macie\AppData\Local\Temp\face_track_dzogwx63\segment_5_00-06_56_00-40_74_audio.m4a':
  Metadata:
    major_brand     : M4A 
    minor_version   : 512
    compatible_brands: M4A isomiso2
    encoder         : Lavf62.12.101
  Duration: 00:00:34.18, start: 0.000000, bitrate: 196 kb/s
  Stream #1:0[0x1](eng): Audio: aac (LC) (mp4a / 0x6134706D), 48000 Hz, stereo, fltp, 194 kb/s (default)
    Metadata:
      handler_name    : SoundHandler
Stream mapping:
  Stream #0:0 -> #0:0 (h264 (native) -> h264 (libx264))
  Stream #1:0 -> #0:1 (aac (native) -> aac (native))
Press [q] to stop, [?] for help
[swscaler @ 000001faf3f9e240] deprecated pixel format used, make sure you did set range correctly
[libx264 @ 000001faf02e5fc0] using SAR=1/1
[libx264 @ 000001faf02e5fc0] using cpu capabilities: MMX2 SSE2Fast SSSE3 SSE4.2 AVX FMA3 BMI2 AVX2 AVX512
[libx264 @ 000001faf02e5fc0] profile High, level 4.2, 4:2:0, 8-bit
[libx264 @ 000001faf02e5fc0] 264 - core 165 r3223 0480cb0 - H.264/MPEG-4 AVC codec - Copyleft 2003-2025 - http://www.videolan.org/x264.html - options: cabac=1 ref=1 deblock=1:0:0 analyse=0x3:0x3 me=dia subme=1 psy=1 psy_rd=1.00:0.00 mixed_ref=0 me_range=16 chroma_me=1 trellis=0 8x8dct=1 cqm=0 deadzone=21,11 fast_pskip=1 chroma_qp_offset=0 threads=24 lookahead_threads=4 sliced_threads=0 nr=0 decimate=1 interlaced=0 bluray_compat=0 constrained_intra=0 bframes=3 b_pyramid=2 b_adapt=1 b_bias=0 direct=1 weightb=1 open_gop=0 weightp=1 keyint=250 keyint_min=25 scenecut=40 intra_refresh=0 rc=crf mbtree=0 crf=23.0 qcomp=0.60 qpmin=0 qpmax=69 qpstep=4 ip_ratio=1.40 pb_ratio=1.30 aq=1:1.00
Output #0, mp4, to 'D:\PythonProjects\viral-cutter-ai\benchmarks\runs\20260510_160345\emeritos_gameplay\compare_generic\cuts_raw\segment_5_00-06_56_00-40_74.mp4':
  Metadata:
    software        : Lavf62.12.101
    encoder         : Lavf62.12.101
  Stream #0:0: Video: h264 (avc1 / 0x31637661), yuv420p(pc, bt470bg/unknown/unknown, progressive), 1080x1920 [SAR 1:1 DAR 9:16], q=2-31, 59.94 fps, 60k tbn
    Metadata:
      encoder         : Lavc62.28.101 libx264
    Side data:
      CPB properties: bitrate max/min/avg: 0/0/0 buffer size: 0 vbv_delay: N/A
  Stream #0:1(eng): Audio: aac (LC) (mp4a / 0x6134706D), 48000 Hz, stereo, fltp, 192 kb/s (default)
    Metadata:
      encoder         : Lavc62.28.101 aac
      handler_name    : SoundHandler
frame=  332 fps=0.0 q=26.0 size=    2560KiB time=00:00:05.53 bitrate=3786.3kbits/s speed=10.5x elapsed=0:00:00.52    frame=  573 fps=549 q=24.0 size=    5632KiB time=00:00:09.55 bitrate=4826.3kbits/s speed=9.15x elapsed=0:00:01.04    frame=  796 fps=514 q=26.0 size=    8448KiB time=00:00:13.27 bitrate=5211.4kbits/s speed=8.57x elapsed=0:00:01.54    frame= 1151 fps=555 q=27.0 size=   12544KiB time=00:00:19.20 bitrate=5351.4kbits/s speed=9.26x elapsed=0:00:02.07    frame= 1489 fps=576 q=25.0 size=   16640KiB time=00:00:25.38 bitrate=5369.6kbits/s speed=9.81x elapsed=0:00:02.58    frame= 1893 fps=610 q=26.0 size=   21248KiB time=00:00:32.12 bitrate=5417.8kbits/s speed=10.4x elapsed=0:00:03.10    [mp4 @ 000001faf2209cc0] Starting second pass: moving the moov atom to the beginning of the file
[out#0/mp4 @ 000001faf029de40] video:22290KiB audio:821KiB subtitle:0KiB other streams:0KiB global headers:0KiB muxing overhead: 0.232265%
frame= 2047 fps=624 q=-1.0 Lsize=   23165KiB time=00:00:34.15 bitrate=5556.7kbits/s speed=10.4x elapsed=0:00:03.28    
[libx264 @ 000001faf02e5fc0] frame I:15    Avg QP:16.51  size: 67565
[libx264 @ 000001faf02e5fc0] frame P:695   Avg QP:19.18  size: 19973
[libx264 @ 000001faf02e5fc0] frame B:1337  Avg QP:20.90  size:  5931
[libx264 @ 000001faf02e5fc0] consecutive B-frames:  7.3% 15.2%  5.0% 72.5%
[libx264 @ 000001faf02e5fc0] mb I  I16..4: 27.2% 49.8% 23.0%
[libx264 @ 000001faf02e5fc0] mb P  I16..4:  8.3% 17.2%  2.1%  P16..4: 30.0%  0.0%  0.0%  0.0%  0.0%    skip:42.3%
[libx264 @ 000001faf02e5fc0] mb B  I16..4:  1.3%  1.9%  0.1%  B16..8: 17.4%  0.0%  0.0%  direct: 7.3%  skip:72.0%  L0:42.2% L1:49.7% BI: 8.0%
[libx264 @ 000001faf02e5fc0] 8x8 transform intra:60.6% inter:51.3%
[libx264 @ 000001faf02e5fc0] coded y,uvDC,uvAC intra: 35.0% 48.6% 15.1% inter: 2.6% 12.9% 0.1%
[libx264 @ 000001faf02e5fc0] i16 v,h,dc,p: 51% 28%  8% 14%
[libx264 @ 000001faf02e5fc0] i8 v,h,dc,ddl,ddr,vr,hd,vl,hu: 19% 24% 17%  6%  7%  7%  8%  5%  7%
[libx264 @ 000001faf02e5fc0] i4 v,h,dc,ddl,ddr,vr,hd,vl,hu: 27% 25% 10%  7%  6%  7%  6%  6%  6%
[libx264 @ 000001faf02e5fc0] i8c dc,h,v,p: 42% 24% 19% 15%
[libx264 @ 000001faf02e5fc0] Weighted P-Frames: Y:2.2% UV:0.3%
[libx264 @ 000001faf02e5fc0] kb/s:5346.79
[aac @ 000001faf2204800] Qavg: 958.312
Cutting segment 1: 1067.41s - 1115.79s -> D:\PythonProjects\viral-cutter-ai\benchmarks\runs\20260510_160345\emeritos_gameplay\compare_generic\cuts_raw\segment_1_17-47_41_18-35_79.mp4
Cutting segment 2: 998.20s - 1039.73s -> D:\PythonProjects\viral-cutter-ai\benchmarks\runs\20260510_160345\emeritos_gameplay\compare_generic\cuts_raw\segment_2_16-38_20_17-19_73.mp4
Cutting segment 3: 337.91s - 374.94s -> D:\PythonProjects\viral-cutter-ai\benchmarks\runs\20260510_160345\emeritos_gameplay\compare_generic\cuts_raw\segment_3_05-37_91_06-14_94.mp4
Cutting segment 4: 254.05s - 299.95s -> D:\PythonProjects\viral-cutter-ai\benchmarks\runs\20260510_160345\emeritos_gameplay\compare_generic\cuts_raw\segment_4_04-14_05_04-59_95.mp4
Cutting segment 5: 6.56s - 40.74s -> D:\PythonProjects\viral-cutter-ai\benchmarks\runs\20260510_160345\emeritos_gameplay\compare_generic\cuts_raw\segment_5_00-06_56_00-40_74.mp4
Done. Files saved in D:\PythonProjects\viral-cutter-ai\benchmarks\runs\20260510_160345\emeritos_gameplay\compare_generic\cuts_raw
$ D:\PythonProjects\viral-cutter-ai\.venv\Scripts\python.exe D:\PythonProjects\viral-cutter-ai\cutter.py --video "D:\PythonProjects\viral-cutter-ai\input\EMERITOS BANDITOS BEZ MVP MAJORA W ESEA INTERMEDIATE!.mp4" --windows D:\PythonProjects\viral-cutter-ai\benchmarks\runs\20260510_160345\emeritos_gameplay\compare_generic\top_windows.json --transcript D:\PythonProjects\viral-cutter-ai\benchmarks\runs\20260510_160345\emeritos_gameplay\shared\transcript.json --output-dir D:\PythonProjects\viral-cutter-ai\benchmarks\runs\20260510_160345\emeritos_gameplay\compare_generic\cuts_raw --cutting-log D:\PythonProjects\viral-cutter-ai\benchmarks\runs\20260510_160345\emeritos_gameplay\compare_generic\cutting_logic.json

